<svg width="122" height="122" viewBox="0 0 122 122" fill="none" xmlns="http://www.w3.org/2000/svg">
<path d="M56.2693 0.150818C41.8017 1.2261 28.6049 7.17513 18.243 17.2996C4.61332 30.5942 -1.92223 49.4188 0.493688 68.3272C3.51009 91.9697 20.1841 111.66 43.0865 118.629C60.7939 124.019 80.4983 120.821 95.5105 110.138C113.958 96.997 123.552 75.1979 120.703 52.8821C117.687 29.2396 101.013 9.54916 78.1103 2.5807C71.2954 0.499939 63.3495 -0.379852 56.2693 0.150818ZM60.8916 37.7023C63.9918 38.0095 65.5419 38.4983 66.2402 39.406C66.4217 39.6574 66.715 40.2718 66.8826 40.7745C67.2456 41.8359 67.2596 43.0508 67.0362 52.128C66.8965 57.7977 66.9803 59.5433 67.4411 60.8001C67.9858 62.2385 69.1868 62.8949 70.2481 62.3502C71.2117 61.8475 73.46 59.3757 74.9263 57.1832C78.3198 52.1559 80.3866 48.2597 82.8723 42.2409C83.375 41.0538 84.0453 40.2718 84.7436 40.0903C85.0229 40.0065 88.9749 39.9367 93.8347 39.9227L102.423 39.8948L103.149 40.202C104.085 40.6209 104.448 41.1656 104.448 42.1571C104.448 44.0423 102.479 47.9106 99.0994 52.6447C98.6386 53.301 96.893 55.6192 95.2312 57.8117C91.5584 62.6435 90.7624 63.7746 90.2038 64.9477C89.5056 66.428 89.6732 67.6429 90.7764 69.0813C91.0976 69.4863 92.7175 71.1202 94.3793 72.7121C99.0296 77.1669 101.138 79.513 102.856 82.0826C104.085 83.9399 104.56 85.3084 104.364 86.4815C104.266 87.1239 103.624 87.8919 102.898 88.269C102.032 88.7019 100.705 88.7857 93.4018 88.8834L86.4892 88.9812L85.372 88.6041C82.5232 87.6545 80.624 86.0765 76.3088 81.0771C73.9208 78.312 72.1473 76.9575 70.9184 76.9435C69.7872 76.9435 68.3489 78.4517 67.7344 80.323C67.3155 81.5798 67.1618 82.5434 67.0362 84.7219C66.8826 87.2914 66.5753 87.8919 64.9973 88.5483C64.4247 88.7996 57.3027 88.8834 55.4174 88.6879C51.6329 88.269 48.1278 87.082 44.6505 85.0291C39.6092 82.0686 36.523 79.4153 33.2133 75.1979C27.4598 67.8524 23.5357 61.5961 18.7737 52.1559C16.9303 48.4831 14.7658 43.7351 14.4166 42.6039C14.0675 41.4309 14.5703 40.4673 15.7154 40.1042C16.1064 39.9785 18.2849 39.9087 23.3122 39.8389L30.3645 39.7691L31.1884 40.0763C32.4871 40.579 33.0318 41.2214 33.9116 43.358C34.6657 45.1595 38.7294 53.315 40.0002 55.5912C41.299 57.8954 42.6815 59.8226 43.8685 60.9677C45.3348 62.4061 45.9911 62.7552 47.0245 62.6714C47.9043 62.5876 48.1417 62.3921 48.6864 61.2051C50.013 58.3423 50.2225 48.6647 49.0355 44.8662C48.3512 42.7017 47.3318 41.8778 44.5109 41.2773C44.0221 41.1656 44.0221 40.998 44.469 40.3416C45.5582 38.7776 47.4994 38.0235 51.2 37.7162C53.2249 37.5487 59.2298 37.5347 60.8916 37.7023Z" fill="#45668E"/>
</svg>
